<?xml version="1.0" encoding="utf-8"?>
<!-- Generator: Adobe Illustrator 27.6.1, SVG Export Plug-In . SVG Version: 6.00 Build 0)  -->
<svg version="1.1" id="Calque_1" xmlns="http://www.w3.org/2000/svg" xmlns:xlink="http://www.w3.org/1999/xlink" x="0px" y="0px"
	 viewBox="0 0 43 40" style="enable-background:new 0 0 43 40;" xml:space="preserve">
<style type="text/css">
	.st0{fill:#FFFFFF;}
	.st1{fill:none;}
	.st2{fill:none;stroke:#FFFFFF;}
</style>
<path id="discord" class="st0" d="M30.5,10.4c-1.8-0.9-3.7-1.5-5.6-1.8c-0.2,0.5-0.5,1.1-0.7,1.6c-2.1-0.3-4.2-0.3-6.3,0
	c-0.2-0.5-0.5-1.1-0.7-1.6c-2,0.4-3.9,1-5.7,1.9c-3.2,4.9-4.6,10.7-4.1,16.5c2.1,1.6,4.4,2.9,6.9,3.7c0.6-0.8,1.1-1.7,1.5-2.5
	c-0.8-0.3-1.6-0.7-2.3-1.2c0.2-0.2,0.4-0.3,0.6-0.5c4.4,2.2,9.5,2.2,13.8,0c0.2,0.2,0.4,0.3,0.6,0.5c-0.7,0.5-1.5,0.9-2.3,1.2
	c0.4,0.9,0.9,1.7,1.5,2.5c2.5-0.8,4.9-2.1,6.9-3.7C35.1,21.1,33.7,15.3,30.5,10.4z M16.5,23.6c-1.5-0.1-2.6-1.4-2.5-2.9
	c-0.1-1.5,1-2.8,2.5-2.9c1.5,0.1,2.6,1.4,2.5,2.9c0,0,0,0,0,0C19,22.2,17.9,23.5,16.5,23.6z M25.5,23.6c-1.5-0.1-2.6-1.4-2.5-2.9
	c-0.1-1.5,1-2.8,2.5-2.9c1.5,0.1,2.6,1.4,2.5,2.9c0,0,0,0,0,0C28.1,22.2,27,23.5,25.5,23.6L25.5,23.6z"/>
<g id="Rectangle_462">
	<path class="st1" d="M9.3,0.5h24.4c4.9,0,8.8,3.9,8.8,8.8v21.5c0,4.9-3.9,8.8-8.8,8.8H9.3c-4.9,0-8.8-3.9-8.8-8.8V9.3
		C0.5,4.5,4.4,0.5,9.3,0.5z"/>
	<path class="st2" d="M9.3,1h24.4C38.3,1,42,4.7,42,9.3v21.5c0,4.6-3.7,8.3-8.3,8.3H9.3c-4.6,0-8.3-3.7-8.3-8.3V9.3
		C1,4.7,4.7,1,9.3,1z"/>
</g>
</svg>
