<svg xmlns="http://www.w3.org/2000/svg" width="43" height="40" viewBox="0 0 43 40">
  <g id="Groupe_3351" data-name="Groupe 3351" transform="translate(-5447 141)">
    <g id="Rectangle_461" data-name="Rectangle 461" transform="translate(5447 -141)" fill="none" stroke="#fff" stroke-width="1">
      <rect width="43" height="40" rx="9" stroke="none"/>
      <rect x="0.5" y="0.5" width="42" height="39" rx="8.5" fill="none"/>
    </g>
    <g id="Groupe_3348" data-name="Groupe 3348" transform="translate(5350.484 -304.1)">
      <path id="Tracé_691" data-name="Tracé 691" d="M107.656,190.51l.092-.137,5.948-9.289a.2.2,0,0,1,.366.046c1.007,2.242,1.83,4.987,1.464,6.726a9.7,9.7,0,0,1-1.19,2.562,1,1,0,0,1-.229.366.238.238,0,0,1-.183.092h-6.131A.253.253,0,0,1,107.656,190.51Z" transform="translate(-2.018 -5.905)" fill="#fff"/>
      <path id="Tracé_692" data-name="Tracé 692" d="M132.132,186.344v1.464c0,.092-.046.137-.137.183a7.025,7.025,0,0,0-2.7,1.83c-1.693,2.334-2.974,5.674-5.811,5.674H111.541a7.665,7.665,0,0,1-7.641-7.687v-.137a.2.2,0,0,1,.183-.183h6.726a.245.245,0,0,1,.229.229,2.548,2.548,0,0,0,.229,1.281,2.326,2.326,0,0,0,2.1,1.281h3.294v-2.562h-3.249a.205.205,0,0,1-.183-.32.632.632,0,0,0,.137-.183c.32-.458.732-1.1,1.19-1.876a11.069,11.069,0,0,0,.824-1.647,2.23,2.23,0,0,0,.137-.32c.046-.183.137-.366.183-.5l.137-.412a7.713,7.713,0,0,0,.137-1.51,3.241,3.241,0,0,0-.046-.641c0-.229-.046-.458-.046-.686a2.679,2.679,0,0,0-.092-.595,6.479,6.479,0,0,0-.183-.915l-.046-.092a2.96,2.96,0,0,0-.183-.595,17.071,17.071,0,0,0-.641-1.83l-.275-.686c-.137-.32-.275-.641-.412-.915-.046-.137-.137-.229-.183-.366s-.137-.275-.183-.412l-.137-.275-.412-.732c-.046-.092.046-.229.137-.183l2.517.686h0l.32.092.366.092.137.046v-1.51A1.319,1.319,0,0,1,117.9,170.1a1.251,1.251,0,0,1,1.281,1.281v2.2l.275.092a.045.045,0,0,1,.046.046,1.742,1.742,0,0,0,.275.229,1.99,1.99,0,0,0,.32.275c.229.183.549.458.869.732.092.091.183.137.229.229a18.1,18.1,0,0,1,1.327,1.327c.137.137.229.275.366.412s.229.32.366.458c.137.183.32.412.458.595a1.989,1.989,0,0,1,.183.32c.183.275.32.549.5.824.046.137.137.275.183.412a3.35,3.35,0,0,1,.366,1.144.5.5,0,0,1,.046.229h0a.892.892,0,0,1,.046.366,5.183,5.183,0,0,1-.046,1.19c-.046.183-.092.32-.137.5a3.475,3.475,0,0,1-.183.5,9.681,9.681,0,0,1-.5.961,4.226,4.226,0,0,1-.229.366,1.605,1.605,0,0,0-.229.366c-.092.137-.229.275-.32.412a2.514,2.514,0,0,1-.32.412c-.137.183-.32.366-.458.549a7606.549,7606.549,0,0,0-.641.641,2.962,2.962,0,0,1-.412.366l-.275.229a.168.168,0,0,1-.137.046h-2.013v2.562h2.517a2.275,2.275,0,0,0,1.51-.549c.137-.137.778-.686,1.556-1.51.046-.046.046-.046.092-.046l6.955-2.013C132.04,186.115,132.132,186.206,132.132,186.344Z" fill="#fff"/>
    </g>
  </g>
</svg>
