<svg xmlns="http://www.w3.org/2000/svg" width="43" height="40" viewBox="0 0 43 40">
  <g id="Groupe_3350" data-name="Groupe 3350" transform="translate(-5342 140)">
    <g id="Composant_11" data-name="Composant 11" transform="translate(5349 -134)">
      <rect id="Rectangle_393" data-name="Rectangle 393" width="28" height="28" fill="none"/>
      <path id="Tracé_2" data-name="Tracé 2" d="M46.867,24.711C57.444,24.711,63.2,16,63.2,8.378V7.6A12.644,12.644,0,0,0,66,4.644a12.913,12.913,0,0,1-3.267.933,6.052,6.052,0,0,0,2.489-3.111,14.268,14.268,0,0,1-3.578,1.4A5.555,5.555,0,0,0,57.444,2a5.844,5.844,0,0,0-5.756,5.756A3.033,3.033,0,0,0,51.844,9,16.083,16.083,0,0,1,40.022,2.933a5.957,5.957,0,0,0-.778,2.956,6.18,6.18,0,0,0,2.489,4.822,5.244,5.244,0,0,1-2.644-.778h0a5.685,5.685,0,0,0,4.667,5.6,4.8,4.8,0,0,1-1.556.156,2.647,2.647,0,0,1-1.089-.156,5.893,5.893,0,0,0,5.444,4.044A11.745,11.745,0,0,1,39.4,22.067a4.307,4.307,0,0,1-1.4-.156,14.683,14.683,0,0,0,8.867,2.8" transform="translate(-38 -0.001)" fill="#fff" fill-rule="evenodd"/>
    </g>
    <g id="Rectangle_463" data-name="Rectangle 463" transform="translate(5342 -140)" fill="none" stroke="#fff" stroke-width="1">
      <rect width="43" height="40" rx="9" stroke="none"/>
      <rect x="0.5" y="0.5" width="42" height="39" rx="8.5" fill="none"/>
    </g>
  </g>
</svg>
